<svg xmlns="http://www.w3.org/2000/svg" viewBox="0 0 750 500"><g id="freepik--Panel--inject-42"><path d="M476.17,61.46s15.29.21,8.75,30.49-5.7,36-5.7,48A20.89,20.89,0,0,0,490.53,159H469.79L454.54,88.31V61.46Z" style="fill:#e0e0e0"></path><polygon points="480.67 299.79 271.28 299.79 273.15 94.94 470.37 84.63 480.67 299.79" style="fill:#e0e0e0"></polygon><polygon points="473.48 294.5 264.09 294.5 265.96 89.65 469.27 85.68 473.48 294.5" style="fill:#ebebeb"></polygon><polygon points="469.14 288.79 260.18 288.79 260.18 83.94 469.27 83.45 469.14 288.79" style="fill:#fafafa"></polygon><path d="M469.14,288.79c0-1.91,0-82.17-.1-205.34l.23.23-208.76.52h-.33l.26-.26c0,74.94,0,145.21,0,204.85l-.22-.22,209,.22-209,.23H260v-.23c0-59.64,0-129.91,0-204.85v-.26h.58l208.77-.45h.22v.22C469.28,206.62,469.14,286.88,469.14,288.79Z" style="fill:#263238"></path><path d="M469.27,82.9c-10.8-12.57,1.73-21.87,6-22.07l-199-.11a16.76,16.76,0,0,0-16.53,19.62,23.83,23.83,0,0,0,.81,3.11" style="fill:#f5f5f5"></path><path d="M474.54,159l.28,0,.8,0,3.12,0,11.79-.07,0,.31a12.77,12.77,0,0,1-4.81-2.75,15.69,15.69,0,0,1-3.58-5.12,34.12,34.12,0,0,1-2.15-6.54c-.27-1.17-.51-2.36-.73-3.58a18.69,18.69,0,0,1-.29-1.87,15.22,15.22,0,0,1-.14-1.92,69.3,69.3,0,0,1,.26-8c.2-2.72.51-5.51.84-8.36.68-5.69,1.53-11.62,2.54-17.7.42-2.59.94-5.16,1.37-7.67s.75-5,1.07-7.48.58-4.88.87-7.25c.13-1.18.29-2.35.32-3.5a21.4,21.4,0,0,0-.19-3.41A20.66,20.66,0,0,0,484,67.74,12.48,12.48,0,0,0,480.15,63a7.52,7.52,0,0,0-5.44-1.21,9.87,9.87,0,0,0-4.84,2,12,12,0,0,0-3,3.74,16,16,0,0,0-1.46,4.07,10.64,10.64,0,0,0,.79,6.78,23.48,23.48,0,0,0,2.2,3.83l.68.93c.15.21.22.33.22.33s-.1-.09-.27-.29l-.71-.91a20.76,20.76,0,0,1-2.3-3.81,10.82,10.82,0,0,1-.9-6.92,16.31,16.31,0,0,1,1.46-4.16,12.27,12.27,0,0,1,3.09-3.88,10.38,10.38,0,0,1,5-2.12,7.94,7.94,0,0,1,5.74,1.26,12.84,12.84,0,0,1,4,4.91A20.84,20.84,0,0,1,486.33,74a22.41,22.41,0,0,1,.21,3.49c0,1.19-.19,2.36-.32,3.55-.26,2.37-.54,4.79-.86,7.26s-.65,5-1.06,7.5-.95,5.07-1.36,7.67c-1,6.07-1.87,12-2.56,17.67-.33,2.84-.64,5.62-.85,8.34a71,71,0,0,0-.29,7.9,16.48,16.48,0,0,0,.13,1.88c.05.62.18,1.24.28,1.85.22,1.21.45,2.4.72,3.56a33.58,33.58,0,0,0,2.08,6.47,15.44,15.44,0,0,0,3.47,5,12.37,12.37,0,0,0,4.66,2.71l1,.32h-1l-11.79-.07-3.12,0-.8,0Z" style="fill:#263238"></path><path d="M345.67,67.09c.08.06-.52.85-1.11,2.31a13.43,13.43,0,0,0-.75,2.63,15.16,15.16,0,0,0-.16,3.35,14.53,14.53,0,0,0,.67,3.28,13.06,13.06,0,0,0,1.14,2.5c.81,1.34,1.52,2,1.45,2.11s-.22-.14-.54-.45a8.31,8.31,0,0,1-1.22-1.47,11.66,11.66,0,0,1-1.28-2.53,12.7,12.7,0,0,1-.53-6.87,12.05,12.05,0,0,1,.88-2.7,8.34,8.34,0,0,1,1-1.64C345.47,67.26,345.64,67.07,345.67,67.09Z" style="fill:#263238"></path><path d="M340.7,60a20.88,20.88,0,0,0-2.64,3.23,13.22,13.22,0,0,0,3.33,17.86A21.37,21.37,0,0,0,345,83.16a4.68,4.68,0,0,1-1.1-.3,12.09,12.09,0,0,1-2.75-1.46A13.19,13.19,0,0,1,337.75,63a11.79,11.79,0,0,1,2-2.35A4.17,4.17,0,0,1,340.7,60Z" style="fill:#263238"></path><path d="M453.16,219.92l-.65,0-1.92,0-7.39.05L416,220.1l-89.61.08h-38.9v-.25c0-25.6.07-47.62.1-63.26,0-7.8.05-14,.07-18.28,0-2.11,0-3.75,0-4.88,0-.54,0-.95,0-1.25s0-.43,0-.43,0,.14,0,.43,0,.71,0,1.25c0,1.13,0,2.77,0,4.88,0,4.28,0,10.48.07,18.28,0,15.64.06,37.66.1,63.26l-.25-.25h38.65l89.61.08,27.16.08,7.39.05,1.92,0Z" style="fill:#263238"></path><rect x="301.22" y="198.15" width="16.71" height="16.71" style="fill:#2B040C"></rect><rect x="325.71" y="186.21" width="16.71" height="28.65" style="fill:#2B040C"></rect><rect x="350.3" y="172.64" width="16.71" height="42.22" style="fill:#2B040C"></rect><rect x="374.14" y="157.54" width="16.71" height="57.32" style="fill:#2B040C"></rect><rect x="398.53" y="138.21" width="16.71" height="76.65" style="fill:#2B040C"></rect><rect x="422.74" y="123.46" width="16.71" height="90.61" style="fill:#2B040C"></rect><path d="M301.22,181a1.06,1.06,0,0,1,.21-.17l.65-.45,2.55-1.7,9.57-6.31,33.15-21.67.39-.25v.46c0,2.37,0,4.9,0,7.48l-.4-.21,13.06-8.76,46.1-30.8,14-9.29,3.82-2.5,1-.64.35-.2a2.19,2.19,0,0,1-.32.24l-1,.69-3.77,2.58L406.72,119l-46,30.93-13.07,8.75-.4.27v-8l.39.21-33.26,21.51-9.65,6.19-2.59,1.63-.67.42Z" style="fill:#263238"></path><path d="M425.69,113.09a8.57,8.57,0,0,1-.18-2.06c0-1.28-.07-3.06-.08-5l.26.26h-.64c-2.14,0-4.08,0-5.48-.08a10.48,10.48,0,0,1-2.27-.18,10,10,0,0,1,2.27-.19c1.4,0,3.34-.07,5.48-.07h.9V106c0,2,0,3.77-.08,5A8.57,8.57,0,0,1,425.69,113.09Z" style="fill:#263238"></path><path d="M337.41,233.39c0,.15-5.16.26-11.53.26s-11.53-.11-11.53-.26,5.16-.26,11.53-.26S337.41,233.25,337.41,233.39Z" style="fill:#263238"></path><path d="M325.57,241.29a14.15,14.15,0,0,1,0-5.4,14.15,14.15,0,0,1,0,5.4Z" style="fill:#263238"></path><path d="M353.83,244c0,.14-13.87.26-31,.26s-31-.12-31-.26,13.86-.26,31-.26S353.83,243.85,353.83,244Z" style="fill:#263238"></path><path d="M292.32,251.68a27,27,0,0,1,0-7.48,27,27,0,0,1,0,7.48Z" style="fill:#263238"></path><path d="M314.35,250.85a20.07,20.07,0,0,1,0-6.44,20.07,20.07,0,0,1,0,6.44Z" style="fill:#263238"></path><path d="M337,251.26a24.09,24.09,0,0,1,0-7.06,24.09,24.09,0,0,1,0,7.06Z" style="fill:#263238"></path><path d="M354.24,251.26a25.54,25.54,0,0,1,0-7.27,25.54,25.54,0,0,1,0,7.27Z" style="fill:#263238"></path><path d="M300,253.76a54.72,54.72,0,0,1-7.48.26,54.72,54.72,0,0,1-7.48-.26,52.86,52.86,0,0,1,7.48-.26A52.86,52.86,0,0,1,300,253.76Z" style="fill:#263238"></path><path d="M319.13,253.76a62.94,62.94,0,0,1-11.43,0,62.94,62.94,0,0,1,11.43,0Z" style="fill:#263238"></path><path d="M343.44,254.38a72.39,72.39,0,0,1-12.26,0,72.39,72.39,0,0,1,12.26,0Z" style="fill:#263238"></path><path d="M363.18,253.34a82.51,82.51,0,0,1-13.09,0,82.51,82.51,0,0,1,13.09,0Z" style="fill:#263238"></path><path d="M292.53,261a9.27,9.27,0,0,1,0-4.36,9.27,9.27,0,0,1,0,4.36Z" style="fill:#263238"></path><path d="M306.75,261c0,.14-6.05.26-13.5.26s-13.51-.12-13.51-.26,6.05-.26,13.51-.26S306.75,260.88,306.75,261Z" style="fill:#263238"></path><path d="M306.75,267.26a18.79,18.79,0,0,1,0-6.23,18.79,18.79,0,0,1,0,6.23Z" style="fill:#263238"></path><path d="M279.74,267.68a21.39,21.39,0,0,1,0-6.65,21.39,21.39,0,0,1,0,6.65Z" style="fill:#263238"></path><path d="M337.55,261a9.27,9.27,0,0,1,0-4.36,9.27,9.27,0,0,1,0,4.36Z" style="fill:#263238"></path><path d="M370.39,261c0,.14-10.22.26-22.82.26s-22.81-.12-22.81-.26,10.21-.26,22.81-.26S370.39,260.88,370.39,261Z" style="fill:#263238"></path><path d="M351.77,267.26a18.79,18.79,0,0,1,0-6.23,18.79,18.79,0,0,1,0,6.23Z" style="fill:#263238"></path><path d="M371.32,267.26a18.79,18.79,0,0,1,0-6.23,18.79,18.79,0,0,1,0,6.23Z" style="fill:#263238"></path><path d="M324.76,267.68a21.39,21.39,0,0,1,0-6.65,21.39,21.39,0,0,1,0,6.65Z" style="fill:#263238"></path><path d="M285.06,271.51a54.56,54.56,0,0,1-10.64,0,54.56,54.56,0,0,1,10.64,0Z" style="fill:#263238"></path><path d="M311.52,270.75a63.82,63.82,0,0,1-11.51,0,63.82,63.82,0,0,1,11.51,0Z" style="fill:#263238"></path><path d="M330.63,270.75a49.47,49.47,0,0,1-10.13,0,49.47,49.47,0,0,1,10.13,0Z" style="fill:#263238"></path><path d="M356.4,270.75a58.2,58.2,0,0,1-11,0,58.2,58.2,0,0,1,11,0Z" style="fill:#263238"></path><path d="M377,270.06a60,60,0,0,1-11.16,0,60,60,0,0,1,11.16,0Z" style="fill:#263238"></path><path d="M453,274.11H382.47V230.43H453Zm-70.49-.05H453V230.48H382.52Z" style="fill:#263238"></path><path d="M436,262c-4.89-1.85-10.51,3.27-15.31,1.18-2.78-1.21-4.05-4.37-5.42-7.08s-3.72-5.59-6.74-5.27-5.52,3.85-8.47,3c-1.86-.54-2.78-2.6-3.25-4.48s-.79-3.95-2.21-5.27-4.36-1-4.59,1v23.13h55.13S437.66,262.64,436,262Z" style="fill:#2B040C"></path><path d="M446.58,268.17c0,.05-13.36.09-29.84.09s-29.84,0-29.84-.09,13.36-.09,29.84-.09S446.58,268.12,446.58,268.17Z" style="fill:#e0e0e0"></path><path d="M446.58,258.07c0,.05-13.36.09-29.84.09s-29.84,0-29.84-.09,13.36-.09,29.84-.09S446.58,258,446.58,258.07Z" style="fill:#263238"></path><path d="M446.58,248s-13.36.08-29.84.08-29.84,0-29.84-.08,13.36-.09,29.84-.09S446.58,247.92,446.58,248Z" style="fill:#263238"></path><path d="M446.58,238.36s-13.36.09-29.84.09-29.84,0-29.84-.09,13.36-.09,29.84-.09S446.58,238.31,446.58,238.36Z" style="fill:#263238"></path><path d="M287.79,98.29s0,0,.1,0h.28a5.77,5.77,0,0,1,1.1.1,5.65,5.65,0,0,1,1.66.57,5.38,5.38,0,0,1,1.77,1.52,6.28,6.28,0,0,1,1.17,2.6,6.2,6.2,0,0,1-.41,3.25,9.62,9.62,0,0,1-.81,1.6,16.92,16.92,0,0,0-.91,1.62,13.7,13.7,0,0,0-1.22,3.71l0,.09h-.09l-2.61-.06-2.74-.07H285v-.1a7.83,7.83,0,0,0-1.13-3.66c-.29-.56-.62-1.08-.93-1.61a15.64,15.64,0,0,1-.86-1.55,5.09,5.09,0,0,1-.29-3.24,6.8,6.8,0,0,1,1.13-2.59A5,5,0,0,1,284.67,99a6.18,6.18,0,0,1,1.65-.56,6.42,6.42,0,0,1,1.09-.14h.28c.07,0,.1,0,.1,0h-.1l-.28,0a6.84,6.84,0,0,0-1.07.17,6.53,6.53,0,0,0-1.62.58,5.08,5.08,0,0,0-1.73,1.47,6.71,6.71,0,0,0-1.07,2.55,4.89,4.89,0,0,0,.29,3.13,15.84,15.84,0,0,0,.86,1.53c.31.52.64,1.05.94,1.61a7.91,7.91,0,0,1,1.15,3.76l-.09-.11,2.74.07,2.61.07-.1.08a14.2,14.2,0,0,1,1.24-3.76,16.92,16.92,0,0,1,.93-1.63,9.3,9.3,0,0,0,.8-1.57,5.92,5.92,0,0,0,.42-3.17,6.26,6.26,0,0,0-1.11-2.54A5.55,5.55,0,0,0,290.88,99a5.87,5.87,0,0,0-1.62-.59,7.35,7.35,0,0,0-1.09-.13l-.29,0Z" style="fill:#263238"></path><path d="M288.55,113a.62.62,0,0,0,0-.09l0-.24c0-.22-.06-.54-.11-1-.08-.83-.21-2-.27-3.51,0-.37,0-.76,0-1.16s0-.83,0-1.27a3.5,3.5,0,0,1,.35-1.31,2.07,2.07,0,0,1,1.05-1,1.35,1.35,0,0,1,1.43.34,1,1,0,0,1,.28.73,1.31,1.31,0,0,1-.3.75,1.9,1.9,0,0,1-.66.49,3.58,3.58,0,0,1-.79.23,10.52,10.52,0,0,1-3.36,0,2.66,2.66,0,0,1-.78-.26,2,2,0,0,1-.65-.5,1.54,1.54,0,0,1-.36-.72,1.23,1.23,0,0,1,.13-.78,1.09,1.09,0,0,1,.58-.52.94.94,0,0,1,.75.07,1.37,1.37,0,0,1,.54.5,1.88,1.88,0,0,1,.25.67,7.82,7.82,0,0,1,.08,1.35c0,.87,0,1.69,0,2.43,0,1.48,0,2.68,0,3.51v1.29a.45.45,0,0,0,0-.08v-.25q0-.33,0-1c0-.83,0-2-.06-3.51,0-.74,0-1.55,0-2.43a7.65,7.65,0,0,0-.08-1.34,1.84,1.84,0,0,0-.24-.64,1.31,1.31,0,0,0-.52-.47.83.83,0,0,0-.69-.06,1,1,0,0,0-.53.48,1.11,1.11,0,0,0-.12.72,1.54,1.54,0,0,0,.34.69,2.39,2.39,0,0,0,1.39.73,9.15,9.15,0,0,0,1.66.15,8.33,8.33,0,0,0,1.66-.13,2.91,2.91,0,0,0,.78-.22,1.8,1.8,0,0,0,.63-.46,1.23,1.23,0,0,0,.28-.7.9.9,0,0,0-.26-.68,1.27,1.27,0,0,0-1.34-.32,1.94,1.94,0,0,0-1,.94,3.27,3.27,0,0,0-.35,1.28c0,.43,0,.85-.05,1.26s0,.79,0,1.16c.05,1.48.17,2.68.24,3.5,0,.41.07.73.1,1l0,.24Z" style="fill:#263238"></path><path d="M285.07,113s0,.33,0,.88,0,1.4,0,2.29l0,0,1.7,2.12-.09,0,2.06,0-.08,0,1.07-1.21.54-.6,0,.08c0-1.21,0-2.35.06-3.39l.11.11-3.85-.12-1.11,0-.41,0a1.34,1.34,0,0,1,.36,0l1.09,0h4v.11c0,1,0,2.18,0,3.39v0l0,0-.54.61-1.07,1.2,0,0h-.05l-2.07,0h0l0,0L285,116.26l0,0v0c0-.91.05-1.69.07-2.35A5.41,5.41,0,0,1,285.07,113Z" style="fill:#263238"></path><path d="M290.26,116.22l-.2-.09a4,4,0,0,0-.52-.23,5.1,5.1,0,0,0-1.85-.36,5.17,5.17,0,0,0-1.85.32,4.54,4.54,0,0,0-.53.22l-.2.09a.74.74,0,0,1,.18-.12l.53-.25a5.19,5.19,0,0,1,1.87-.35,5.07,5.07,0,0,1,1.87.39,4.94,4.94,0,0,1,.52.26A.74.74,0,0,1,290.26,116.22Z" style="fill:#263238"></path><path d="M290.29,115.4l-.19-.1-.53-.23a5.56,5.56,0,0,0-1.85-.36,5.38,5.38,0,0,0-1.85.33,4.54,4.54,0,0,0-.53.22l-.19.08.18-.11a3.2,3.2,0,0,1,.52-.25,5,5,0,0,1,1.88-.35,5.06,5.06,0,0,1,1.86.39,3.54,3.54,0,0,1,.52.26A.74.74,0,0,1,290.29,115.4Z" style="fill:#263238"></path><path d="M290.27,114.61a.94.94,0,0,1-.19-.09,4.29,4.29,0,0,0-.53-.23,5.2,5.2,0,0,0-3.7,0c-.22.08-.4.16-.53.22l-.19.09.18-.12c.12-.06.3-.15.52-.24a4.88,4.88,0,0,1,1.88-.35,4.93,4.93,0,0,1,1.87.38c.22.1.4.19.52.26Z" style="fill:#263238"></path><path d="M309.37,136.14s-2,18.45.57,28.55l24.65-1.08s-5.28-18.19-2-26.25Z" style="fill:#ebebeb"></path><path d="M309.47,135.55s.17,19.92,1.18,26l25-1.18s-2.2-19.58-1.35-24.81Z" style="fill:#2B040C"></path><path d="M330.51,143.92c0,.09-3.74.39-8.37.67s-8.38.43-8.39.33,3.74-.39,8.37-.67S330.51,143.82,330.51,143.92Z" style="fill:#fff"></path><path d="M330.52,148.13c0,.1-3.74.4-8.37.67s-8.39.43-8.39.34,3.74-.39,8.37-.67S330.51,148,330.52,148.13Z" style="fill:#fff"></path><path d="M326.27,152.28a6.15,6.15,0,0,1-1.39.2c-.86.08-2.05.17-3.37.25s-2.52.13-3.38.15a5.37,5.37,0,0,1-1.41,0,5.63,5.63,0,0,1,1.39-.2c.87-.08,2.06-.17,3.38-.25s2.51-.14,3.38-.16A5.49,5.49,0,0,1,326.27,152.28Z" style="fill:#fff"></path><path d="M366.42,103.21c0,.15-14.61.26-32.63.26s-32.63-.11-32.63-.26,14.61-.26,32.63-.26S366.42,103.07,366.42,103.21Z" style="fill:#263238"></path><path d="M325.13,109.16c0,.15-5.48.26-12.24.26s-12.24-.11-12.24-.26,5.48-.26,12.24-.26S325.13,109,325.13,109.16Z" style="fill:#263238"></path><path d="M338.13,109.16a43,43,0,0,1-9.44,0,43,43,0,0,1,9.44,0Z" style="fill:#263238"></path><path d="M474.54,171.9a.89.89,0,0,1,0-.23c0-.18,0-.4-.06-.67-.05-.63-.12-1.49-.21-2.57-.15-2.29-.37-5.51-.64-9.47-.5-8.05-1.19-19.08-1.95-31.27s-1.32-23.23-1.79-31.28c-.2-4-.36-7.19-.48-9.48,0-1.08-.08-1.94-.1-2.58,0-.27,0-.49,0-.67a.6.6,0,0,1,0-.23,2.32,2.32,0,0,1,0,.23l.06.67c.05.63.12,1.49.2,2.57.16,2.29.38,5.51.65,9.47.5,8,1.19,19.08,1.94,31.27s1.33,23.23,1.79,31.27c.21,4,.37,7.2.49,9.49,0,1.08.08,1.94.1,2.58,0,.27,0,.49,0,.67A.6.6,0,0,1,474.54,171.9Z" style="fill:#263238"></path><path d="M469.27,60.83l-.58,0-1.7,0-6.55,0-24.05,0L357,60.84l-82.15-.26h0a19.78,19.78,0,0,0-10.44,6.51,19.25,19.25,0,0,0-4.06,8.38,20.35,20.35,0,0,0-.39,5.89c.06.67.12,1.18.18,1.52a4.93,4.93,0,0,1,.07.52,13.14,13.14,0,0,1-.35-2,19.67,19.67,0,0,1,.3-5.94,19.33,19.33,0,0,1,4-8.51,20,20,0,0,1,10.58-6.68h0l82.16.1,79.35.25,24.06.14,6.54.06,1.7,0Z" style="fill:#263238"></path></g><g id="freepik--Chart--inject-42"><path d="M310.42,348.86a4.8,4.8,0,0,1-.85.06l-2.44.05-8.95.09-29.54.08h-2.38v-.28c0-11,.06-20.92.09-28.13,0-3.53.06-6.4.08-8.45,0-.95,0-1.72.05-2.29a4.23,4.23,0,0,1,.06-.8,5.06,5.06,0,0,1,0,.8c0,.57,0,1.34.05,2.29,0,2.05.05,4.92.09,8.45,0,7.21,0,17.1.09,28.13l-.28-.28h2.1l29.54.09,8.95.08,2.44.06A5.74,5.74,0,0,1,310.42,348.86Z" style="fill:#263238"></path><path d="M305.54,318.82a11.72,11.72,0,0,1-1.31,1.25l-3.7,3.25c-3.15,2.73-7.51,6.47-12.36,10.57l-.74.62-.18.16-.18-.17-5.5-5.11h.34l-8.07,6.66-2.34,1.87a5.25,5.25,0,0,1-.88.63,5.07,5.07,0,0,1,.77-.76l2.25-2,7.94-6.81.17-.15.17.15,5.52,5.08h-.36l.73-.62c4.85-4.1,9.25-7.79,12.46-10.44l3.82-3.12A12,12,0,0,1,305.54,318.82Z" style="fill:#263238"></path><path d="M305.54,328a14.41,14.41,0,0,1-.19-2.74c-.05-1.69-.08-4-.09-6.67l.28.28h-.47c-2.73,0-5.2,0-7-.08a14.55,14.55,0,0,1-2.9-.2,16.23,16.23,0,0,1,2.9-.19c1.79-.06,4.26-.09,7-.09h.75v.28c0,2.62,0,5-.09,6.67A14.41,14.41,0,0,1,305.54,328Z" style="fill:#263238"></path></g><g id="freepik--Gears--inject-42"><path d="M120.8,194.81a15.84,15.84,0,0,1,4,1.07l3-2.49,5.1,3.88-1.6,3.53a15.43,15.43,0,0,1,2.1,3.61l3.86.34.86,6.36-3.63,1.35a15.61,15.61,0,0,1-1.06,4l2.49,3-3.89,5.1L128.52,223a16.1,16.1,0,0,1-3.62,2.11l-.34,3.86-6.35.86-1.36-3.63a15.84,15.84,0,0,1-4-1.07l-3,2.49-5.1-3.88,1.6-3.53a15.43,15.43,0,0,1-2.1-3.61l-3.86-.34-.86-6.36,3.63-1.35a15.79,15.79,0,0,1,1.06-4.05l-2.49-3,3.89-5.1,3.52,1.61a16.1,16.1,0,0,1,3.62-2.11l.34-3.86,6.35-.86,1.36,3.63Zm-2.61,8.82a6.88,6.88,0,1,0,7.74,5.9A6.88,6.88,0,0,0,118.19,203.63Z" style="fill:#2B040C"></path><path d="M118.19,203.63a1.24,1.24,0,0,1,.43-.09,5.49,5.49,0,0,1,1.27,0,6.89,6.89,0,0,1,4.22,1.94,7.09,7.09,0,0,1,0,10.14,7.11,7.11,0,0,1-8.38,1.14A7.09,7.09,0,0,1,113,207a6.91,6.91,0,0,1,3.55-3,5.37,5.37,0,0,1,1.24-.31,1.23,1.23,0,0,1,.44,0c0,.06-.6.12-1.6.54a6.91,6.91,0,0,0-3.28,3,6.64,6.64,0,0,0,10.39,8,6.57,6.57,0,0,0,1.88-3.35,6.69,6.69,0,0,0-1.75-6.12,6.84,6.84,0,0,0-4-2C118.8,203.59,118.19,203.69,118.19,203.63Z" style="fill:#2B040C"></path><path d="M120.8,194.81s0-.07-.1-.22l-.28-.67c-.25-.65-.61-1.55-1.06-2.71l.09.06-6.34.91.12-.12c-.1,1.17-.21,2.47-.32,3.86V196l-.09,0a15.82,15.82,0,0,0-3.56,2.1l-.09.07-.1-.05-3.53-1.59.23-.06-3.86,5.12v-.28l2.5,3,.09.1,0,.13a15.78,15.78,0,0,0-1.05,4v.14l-.14.05-3.63,1.37.16-.27c.28,2,.57,4.15.87,6.35l-.23-.22,3.86.34h.16l.06.15a15.54,15.54,0,0,0,2.08,3.54l.1.13-.07.15c-.5,1.11-1,2.31-1.61,3.53l-.08-.33,5.11,3.88h-.35l3-2.49.13-.11.16.07a15.57,15.57,0,0,0,4,1h0c.1.08-.23-.17.22.18h0v0l0,.05,0,.12.08.23.17.45.34.91c.23.61.45,1.21.68,1.81l-.3-.18,6.36-.86-.24.25c.12-1.3.23-2.58.34-3.86l0-.16.15-.07a15.46,15.46,0,0,0,3.55-2.06l.13-.1.15.07,3.52,1.61-.32.08,3.89-5.1v.32l-2.48-3-.1-.11.06-.14a15.44,15.44,0,0,0,1.06-4v-.14l.14,0,3.63-1.35-.15.25c-.29-2.24-.57-4.35-.84-6.36l.19.18-3.85-.35h-.13l0-.11a15.14,15.14,0,0,0-2.07-3.58l-.07-.09,0-.1,1.62-3.52.05.2-5.07-3.91h.15l-3,2.47,0,0,0,0a16.34,16.34,0,0,0-3-.94l-.76-.15c-.18,0-.26-.05-.25-.06h.26c.17,0,.43.05.77.11a15.18,15.18,0,0,1,3,.86l-.09,0,3-2.52.08-.06.08.06,5.12,3.85.11.08-.06.12-1.59,3.53,0-.18a15.9,15.9,0,0,1,2.15,3.64l-.17-.12,3.86.33h.17l0,.17c.28,2,.57,4.12.88,6.35l0,.19-.18.06-3.62,1.37.15-.2a16,16,0,0,1-1.07,4.11l0-.26c.81,1,1.65,2,2.49,3l.13.16-.12.16-3.88,5.11-.12.17-.2-.09-3.53-1.6.28,0a16,16,0,0,1-3.67,2.15l.17-.23c-.12,1.27-.23,2.56-.34,3.86l0,.22-.22,0-6.35.86-.22,0-.08-.2c-.23-.6-.45-1.21-.68-1.81l-.34-.91-.17-.46-.08-.23-.05-.11,0-.06v0h0c.45.35.13.09.23.17h0a16.33,16.33,0,0,1-4.11-1.08l.29-.05-3,2.49-.17.14-.18-.13-5.1-3.89-.17-.13.09-.2c.55-1.21,1.1-2.42,1.61-3.52l0,.27a16.23,16.23,0,0,1-2.14-3.67l.22.16-3.85-.34-.21,0,0-.21c-.29-2.2-.58-4.36-.85-6.35l0-.2.19-.07,3.63-1.35-.15.2a15.51,15.51,0,0,1,1.09-4.1l0,.23c-.87-1-1.72-2.05-2.48-3l-.12-.13.11-.14,3.9-5.09.1-.13.14.07,3.52,1.62-.19,0a16.51,16.51,0,0,1,3.66-2.11l-.1.14c.13-1.39.26-2.69.37-3.86v-.11l.11,0,6.36-.81h.07l0,.07q.63,1.74,1,2.7c.1.29.18.53.25.71A2.31,2.31,0,0,1,120.8,194.81Z" style="fill:#2B040C"></path><path d="M109,237.69a10,10,0,0,1,2.54.67l1.86-1.56,3.21,2.44-1,2.21a10.05,10.05,0,0,1,1.32,2.27l2.43.21.54,4-2.28.86a10,10,0,0,1-.67,2.54l1.56,1.86-2.44,3.21-2.21-1a10.05,10.05,0,0,1-2.27,1.32l-.22,2.42-4,.54-.85-2.27a10,10,0,0,1-2.54-.68l-1.86,1.57-3.21-2.44,1-2.22a9.77,9.77,0,0,1-1.32-2.26l-2.42-.22-.55-4,2.28-.85a9.91,9.91,0,0,1,.67-2.54L97,241.89l2.44-3.2,2.21,1a10.05,10.05,0,0,1,2.27-1.32l.22-2.43,4-.54.85,2.28Zm-1.64,5.54a4.32,4.32,0,1,0,4.86,3.7A4.32,4.32,0,0,0,107.36,243.23Z" style="fill:none"></path><path d="M107.36,243.23l.27-.06a3.36,3.36,0,0,1,.8,0,4.33,4.33,0,0,1,2.65,1.21,4.46,4.46,0,0,1-5.28,7.08,4.35,4.35,0,0,1-1.82-1.86,4.45,4.45,0,0,1,.1-4.27,4.3,4.3,0,0,1,2.23-1.88,4,4,0,0,1,.77-.19l.28,0s-.38.08-1,.34a4.34,4.34,0,0,0-2.07,1.88,4.19,4.19,0,0,0,0,4,4.06,4.06,0,0,0,1.7,1.71,4.13,4.13,0,0,0,4.86-.66,4,4,0,0,0,1.18-2.1,4.2,4.2,0,0,0-1.09-3.84,4.35,4.35,0,0,0-2.49-1.26C107.75,243.2,107.36,243.27,107.36,243.23Z" style="fill:#263238"></path><path d="M109,237.69l-.06-.13-.18-.43c-.16-.4-.38-1-.66-1.7l.05,0-4,.57.07-.08c-.06.74-.12,1.55-.19,2.43v.06l-.06,0a10,10,0,0,0-2.24,1.32l0,0-.06,0-2.22-1,.15,0L97.13,242v-.17l1.56,1.86.06.06,0,.09a9.55,9.55,0,0,0-.66,2.5v.09l-.08,0-2.28.86.1-.17c.17,1.25.36,2.61.55,4l-.15-.14,2.42.21h.1l0,.09a9.49,9.49,0,0,0,1.31,2.23l.06.08,0,.09-1,2.22,0-.21,3.2,2.44H102c.58-.5,1.22-1,1.86-1.57l.08-.07.1,0a9.5,9.5,0,0,0,2.49.66h0l.14.11h0v.05l0,.08.05.14.11.29.21.57c.14.38.29.76.43,1.13l-.19-.11,4-.54-.15.16c.07-.82.15-1.63.22-2.43v-.1l.09,0a9.17,9.17,0,0,0,2.23-1.3l.08-.06.1,0,2.21,1-.2.06c.83-1.1,1.65-2.16,2.44-3.21v.2l-1.56-1.86-.06-.08,0-.08a9.86,9.86,0,0,0,.67-2.5v-.09l.08,0,2.29-.85-.1.15c-.18-1.4-.36-2.73-.53-4l.12.12-2.42-.22h-.08l0-.07a10,10,0,0,0-1.3-2.25l0-.05,0-.07c.38-.8.71-1.52,1-2.21l0,.13-3.19-2.46h.09l-1.88,1.54,0,0,0,0a10.59,10.59,0,0,0-1.88-.59l-.48-.09-.16,0h.16l.49.07a9,9,0,0,1,1.91.54h-.06l1.85-1.58.05,0,0,0,3.22,2.41.07,0,0,.08c-.31.69-.63,1.41-1,2.22v-.12a10,10,0,0,1,1.35,2.29l-.11-.07,2.43.2h.1l0,.11c.17,1.26.36,2.58.55,4l0,.11-.11,0-2.28.86.1-.12a10.16,10.16,0,0,1-.68,2.58l0-.16,1.56,1.86.09.1-.08.1-2.44,3.21-.08.1-.12,0-2.21-1,.17,0a10.21,10.21,0,0,1-2.31,1.35l.11-.15q-.1,1.2-.21,2.43l0,.14h-.13l-4,.55-.14,0-.05-.13-.42-1.14-.22-.57-.11-.29,0-.14,0-.07v-.06h0l.14.11h0a10.51,10.51,0,0,1-2.58-.68l.17,0-1.86,1.56-.11.09-.11-.08L98.81,256l-.11-.09.06-.12,1-2.22,0,.18a10.1,10.1,0,0,1-1.34-2.31l.13.1-2.42-.22H96l0-.13c-.18-1.38-.36-2.73-.53-4l0-.12.12,0,2.28-.85-.1.12a10,10,0,0,1,.69-2.57l0,.14L96.92,242l-.08-.08.07-.09,2.45-3.2.06-.07.09,0,2.21,1h-.12a10.42,10.42,0,0,1,2.3-1.33l-.06.09.23-2.42v-.08h.07l4-.51h0l0,0,.6,1.7.15.44A.87.87,0,0,1,109,237.69Z" style="fill:#263238"></path></g><g id="freepik--Clock--inject-42"><circle cx="220.18" cy="66.16" r="21.74" transform="translate(-9.72 65.58) rotate(-16.58)" style="fill:#f5f5f5"></circle><path d="M198.49,64.73a2.37,2.37,0,0,1,0,.35c0,.26,0,.61,0,1v.76c0,.28,0,.58.08.91a16.86,16.86,0,0,0,.32,2.27A20.55,20.55,0,0,0,201,76,21.74,21.74,0,0,0,206,82.4a21.45,21.45,0,0,0,8.79,4.6,21.67,21.67,0,0,0,11.34-.21,21.22,21.22,0,0,0,2.88-1.05,21.55,21.55,0,0,0,2.74-1.51,27.57,27.57,0,0,0,2.57-1.91A26.43,26.43,0,0,0,236.62,80a20.8,20.8,0,0,0,3.46-5.71A21.3,21.3,0,0,0,241,60.73a21.14,21.14,0,0,0-2.68-6.12A25,25,0,0,0,236.35,52a24.18,24.18,0,0,0-2.3-2.23,23.68,23.68,0,0,0-2.51-1.87,24.24,24.24,0,0,0-2.72-1.41,21.63,21.63,0,0,0-11.22-1.69,21.69,21.69,0,0,0-15.2,9.15,20.5,20.5,0,0,0-2.79,5.57,15.92,15.92,0,0,0-.61,2.2c-.07.32-.15.62-.2.9s-.07.52-.1.75q-.09.64-.15,1a1.68,1.68,0,0,1-.06.35,1.33,1.33,0,0,1,0-.35c0-.26.06-.6.1-1,0-.23.05-.49.07-.76s.12-.58.18-.91a17.05,17.05,0,0,1,.57-2.23,20.5,20.5,0,0,1,2.74-5.68,22,22,0,0,1,15.39-9.4A22,22,0,0,1,229,46.05a22.92,22.92,0,0,1,2.78,1.44,22.22,22.22,0,0,1,2.58,1.9,20,20,0,0,1,4.34,5,21.29,21.29,0,0,1,2.75,6.25,21.74,21.74,0,0,1-.91,13.85A21.6,21.6,0,0,1,237,80.29a26.34,26.34,0,0,1-2.32,2.4,26,26,0,0,1-2.64,2,22.48,22.48,0,0,1-2.8,1.54,21.67,21.67,0,0,1-2.95,1.06,21.86,21.86,0,0,1-25.6-11.16,20.67,20.67,0,0,1-2-6,16.36,16.36,0,0,1-.27-2.29c0-.33,0-.64-.06-.92l0-.76c0-.44,0-.78,0-1A1.6,1.6,0,0,1,198.49,64.73Z" style="fill:#263238"></path><path d="M230.06,66.82a4.06,4.06,0,0,1-.77.06l-2.11,0c-1.8,0-4.3,0-7.12,0h-.14V65.41c0-3.15,0-6,0-8.06,0-1,0-1.82,0-2.44a6.47,6.47,0,0,1,.05-.9,5.41,5.41,0,0,1,.06.9c0,.62,0,1.44,0,2.44,0,2.06,0,4.91,0,8.06v1.41l-.14-.13c2.82,0,5.32,0,7.12,0l2.11,0A7.06,7.06,0,0,1,230.06,66.82Z" style="fill:#263238"></path><path d="M220.13,48a6,6,0,0,1,.14,1.83,6,6,0,0,1-.14,1.83,6,6,0,0,1-.14-1.83A6,6,0,0,1,220.13,48Z" style="fill:#263238"></path><path d="M230,50.92a6,6,0,0,1-1.18,1.37,5.6,5.6,0,0,1-1.37,1.17,6,6,0,0,1,1.18-1.37A5.6,5.6,0,0,1,230,50.92Z" style="fill:#263238"></path><path d="M235.83,57.25a7.57,7.57,0,0,1-1.5,1,7.72,7.72,0,0,1-1.58.87A4.75,4.75,0,0,1,234.19,58,4.65,4.65,0,0,1,235.83,57.25Z" style="fill:#263238"></path><path d="M239.23,66.64a22.3,22.3,0,0,1-5,0,22.3,22.3,0,0,1,5,0Z" style="fill:#263238"></path><path d="M204.69,66.3a9.8,9.8,0,0,1-2.35.14A9.92,9.92,0,0,1,200,66.3a10.59,10.59,0,0,1,2.36-.14A10.46,10.46,0,0,1,204.69,66.3Z" style="fill:#263238"></path><path d="M207.13,73.3a10.44,10.44,0,0,1-1.78,1.61,10.22,10.22,0,0,1-1.95,1.39,10.44,10.44,0,0,1,1.78-1.61A10.22,10.22,0,0,1,207.13,73.3Z" style="fill:#263238"></path><path d="M213.16,78.7A16.87,16.87,0,0,1,212,80.8a14.53,14.53,0,0,1-1.29,2,8.29,8.29,0,0,1,1.05-2.2A8.05,8.05,0,0,1,213.16,78.7Z" style="fill:#263238"></path><path d="M220.13,85.68a11.1,11.1,0,0,1-.14-2.5,11,11,0,0,1,.14-2.49,11,11,0,0,1,.14,2.49A11.1,11.1,0,0,1,220.13,85.68Z" style="fill:#263238"></path><path d="M230.87,82.36A7.38,7.38,0,0,1,228.81,81a7.26,7.26,0,0,1-1.67-1.84A22.56,22.56,0,0,1,229,80.74,23,23,0,0,1,230.87,82.36Z" style="fill:#263238"></path><path d="M235.9,76.93a8.35,8.35,0,0,1-1.64-1.45,8.94,8.94,0,0,1-1.46-1.65,8.74,8.74,0,0,1,1.65,1.45A8.55,8.55,0,0,1,235.9,76.93Z" style="fill:#263238"></path><path d="M206.9,59.61a7.1,7.1,0,0,1-1.45-1.26,6.72,6.72,0,0,1-1.26-1.46,6.72,6.72,0,0,1,1.46,1.26A6.5,6.5,0,0,1,206.9,59.61Z" style="fill:#263238"></path><path d="M213.12,53.06a7,7,0,0,1-1.43-1.23,6.15,6.15,0,0,1-1.23-1.42,6.41,6.41,0,0,1,1.43,1.22A6.15,6.15,0,0,1,213.12,53.06Z" style="fill:#263238"></path></g></svg>