<svg xmlns="http://www.w3.org/2000/svg" viewBox="0 0 500 500"><g id="freepik--window-3--inject-81"><path d="M388,193.47V318.73l-20.86,20.86H284.66a3.22,3.22,0,0,1-3.21-3.22V193.47a3.22,3.22,0,0,1,3.21-3.22h100.1A3.22,3.22,0,0,1,388,193.47Z" style="fill:#712E1E"></path><path d="M388,198.94V318.73l-20.86,20.86H284.66a3.22,3.22,0,0,1-3.21-3.22V198.94Z" style="fill:#fff;opacity:0.6000000000000001;isolation:isolate"></path><path d="M385.2,194.23a1.56,1.56,0,1,1-1.56-1.55A1.55,1.55,0,0,1,385.2,194.23Z" style="fill:#fff;opacity:0.6000000000000001;isolation:isolate"></path><path d="M379.26,194.23a1.55,1.55,0,1,1-1.55-1.55A1.54,1.54,0,0,1,379.26,194.23Z" style="fill:#fff;opacity:0.6000000000000001;isolation:isolate"></path><path d="M373.33,194.23a1.56,1.56,0,1,1-1.55-1.55A1.55,1.55,0,0,1,373.33,194.23Z" style="fill:#fff;opacity:0.6000000000000001;isolation:isolate"></path><path d="M346.2,208.59H289.1a1,1,0,0,1,0-2h57.1a1,1,0,0,1,0,2Z" style="fill:#712E1E"></path><path d="M330.06,214.06h-41a1,1,0,0,1,0-2h41a1,1,0,0,1,0,2Z" style="fill:#712E1E"></path><path d="M374.33,298.52h-73a1,1,0,1,1,0-2h73a1,1,0,0,1,0,2Z" style="fill:#712E1E"></path><path d="M362.12,320.37h-73a1,1,0,0,1,0-2h73a1,1,0,0,1,0,2Z" style="fill:#712E1E"></path><path d="M374.33,304H289.1a1,1,0,0,1,0-2h85.23a1,1,0,0,1,0,2Z" style="fill:#712E1E"></path><path d="M374.33,309.45H289.1a1,1,0,0,1,0-2h85.23a1,1,0,0,1,0,2Z" style="fill:#712E1E"></path><path d="M374.33,314.91H289.1a1,1,0,0,1,0-2h85.23a1,1,0,0,1,0,2Z" style="fill:#712E1E"></path><polygon points="387.98 318.73 367.12 339.59 367.12 318.73 387.98 318.73" style="fill:#712E1E;opacity:0.5"></polygon><rect x="382.09" y="198.94" width="5.89" height="119.79" style="opacity:0.4;isolation:isolate"></rect><path d="M385,261.53h0a2.17,2.17,0,0,1-2.17-2.17V247.12A2.17,2.17,0,0,1,385,245h0a2.17,2.17,0,0,1,2.17,2.17v12.24A2.17,2.17,0,0,1,385,261.53Z" style="fill:#712E1E"></path><path d="M374.33,268.52h-73a1,1,0,1,1,0-2h73a1,1,0,0,1,0,2Z" style="fill:#712E1E"></path><path d="M362.12,290.37h-73a1,1,0,0,1,0-2h73a1,1,0,0,1,0,2Z" style="fill:#712E1E"></path><path d="M374.33,274H289.1a1,1,0,0,1,0-2h85.23a1,1,0,0,1,0,2Z" style="fill:#712E1E"></path><path d="M374.33,279.45H289.1a1,1,0,0,1,0-2h85.23a1,1,0,0,1,0,2Z" style="fill:#712E1E"></path><path d="M374.33,284.91H289.1a1,1,0,0,1,0-2h85.23a1,1,0,0,1,0,2Z" style="fill:#712E1E"></path><rect x="288.84" y="220.57" width="85.48" height="31.9" style="fill:#712E1E"></rect><polygon points="288.84 247.35 291.17 247.35 291.17 241.55 293.85 241.55 293.85 230.1 297.59 230.1 297.59 237.15 302.73 237.15 302.73 246.52 308.86 246.52 308.86 239.99 313.93 239.99 317.28 236.63 317.28 228.86 319.33 228.86 319.33 239.99 324.49 239.99 324.49 243.95 329.83 243.95 329.83 223.75 331.31 222.27 331.31 227.81 334.72 227.81 334.72 230.3 337.99 233.58 337.99 239.49 342.69 239.49 342.69 234.81 354.95 234.81 354.95 231.32 357.72 231.32 357.72 225.22 358.71 225.22 358.71 234.81 360.27 234.81 363.8 231.28 367.12 231.28 367.12 228.09 368.8 228.09 368.8 231.32 370.97 231.32 370.97 244.54 373.33 244.54 373.33 237.94 374.33 238 374.33 220.57 288.84 220.57 288.84 247.35" style="opacity:0.2;isolation:isolate"></polygon><path d="M374.33,257.52h-23a1,1,0,1,1,0-2h23a1,1,0,1,1,0,2Z" style="fill:#712E1E"></path><path d="M322.7,190.25V293.77L307,309.51H281.45v-116a3.22,3.22,0,0,1,3.21-3.22Z" style="opacity:0.2;isolation:isolate"></path><path d="M385,261.53h0a2.17,2.17,0,0,1-2.17-2.17V247.12A2.17,2.17,0,0,1,385,245h0a2.17,2.17,0,0,1,2.17,2.17v12.24A2.17,2.17,0,0,1,385,261.53Z" style="fill:#fff;opacity:0.4;isolation:isolate"></path></g><g id="freepik--window-1--inject-81"><path d="M261.74,209.08V334.34L240.88,355.2H158.42a3.22,3.22,0,0,1-3.21-3.22V209.08a3.22,3.22,0,0,1,3.21-3.22h100.1A3.22,3.22,0,0,1,261.74,209.08Z" style="fill:#712E1E"></path><path d="M261.74,214.56V334.35l-20.86,20.86H158.42a3.22,3.22,0,0,1-3.21-3.22V214.56Z" style="fill:#fff;opacity:0.6000000000000001;isolation:isolate"></path><path d="M259,209.85a1.56,1.56,0,1,1-1.56-1.55A1.55,1.55,0,0,1,259,209.85Z" style="fill:#fff;opacity:0.6000000000000001;isolation:isolate"></path><path d="M253,209.85a1.56,1.56,0,1,1-1.55-1.55A1.54,1.54,0,0,1,253,209.85Z" style="fill:#fff;opacity:0.6000000000000001;isolation:isolate"></path><path d="M247.09,209.85a1.56,1.56,0,1,1-1.56-1.55A1.55,1.55,0,0,1,247.09,209.85Z" style="fill:#fff;opacity:0.6000000000000001;isolation:isolate"></path><path d="M180.6,224.75H162.86a1,1,0,0,1,0-2H180.6a1,1,0,1,1,0,2Z" style="fill:#712E1E"></path><path d="M189,230.21h-26.1a1,1,0,0,1,0-2H189a1,1,0,0,1,0,2Z" style="fill:#712E1E"></path><path d="M180.89,235.67h-18a1,1,0,0,1,0-2h18a1,1,0,0,1,0,2Z" style="fill:#712E1E"></path><path d="M248.08,325.14h-73a1,1,0,0,1,0-2h73a1,1,0,1,1,0,2Z" style="fill:#712E1E"></path><path d="M208.08,330.6H162.86a1,1,0,0,1,0-2h45.22a1,1,0,1,1,0,2Z" style="fill:#712E1E"></path><polygon points="261.74 334.35 240.88 355.21 240.88 334.35 261.74 334.35" style="fill:#712E1E;opacity:0.5"></polygon><rect x="255.85" y="214.56" width="5.89" height="119.79" style="opacity:0.4;isolation:isolate"></rect><path d="M258.79,326.15h0a2.17,2.17,0,0,1-2.17-2.17V311.74a2.17,2.17,0,0,1,2.17-2.17h0a2.17,2.17,0,0,1,2.17,2.17V324A2.17,2.17,0,0,1,258.79,326.15Z" style="fill:#712E1E"></path><path d="M248.08,224.75H234.35a1,1,0,0,1,0-2h13.73a1,1,0,1,1,0,2Z" style="fill:#712E1E"></path><path d="M248.08,230.21H241a1,1,0,0,1,0-2h7.1a1,1,0,0,1,0,2Z" style="fill:#712E1E"></path><path d="M248.08,250.14h-73a1,1,0,0,1,0-2h73a1,1,0,1,1,0,2Z" style="fill:#712E1E"></path><path d="M248.08,255.6H162.86a1,1,0,0,1,0-2h85.22a1,1,0,0,1,0,2Z" style="fill:#712E1E"></path><path d="M198.08,261.06H162.86a1,1,0,0,1,0-2h35.22a1,1,0,0,1,0,2Z" style="fill:#712E1E"></path><rect x="177" y="268.31" width="33.58" height="9" style="fill:#712E1E;opacity:0.7000000000000001"></rect><rect x="177" y="279.31" width="15.21" height="33.23" style="fill:#712E1E;opacity:0.30000000000000004"></rect><rect x="212.57" y="279.31" width="17.47" height="33.23" style="fill:#712E1E;opacity:0.30000000000000004"></rect><rect x="212.57" y="268.31" width="35.51" height="9" style="fill:#712E1E;opacity:0.7000000000000001"></rect><rect x="232.05" y="279.31" width="16.04" height="33.23" style="fill:#712E1E;opacity:0.30000000000000004"></rect><rect x="162.86" y="279.31" width="12.14" height="33.23" style="fill:#712E1E;opacity:0.5"></rect><rect x="162.86" y="268.31" width="12.14" height="9" style="fill:#712E1E"></rect><rect x="194.21" y="279.31" width="16.36" height="33.23" style="fill:#712E1E;opacity:0.30000000000000004"></rect><path d="M258.79,326.15h0a2.17,2.17,0,0,1-2.17-2.17V311.74a2.17,2.17,0,0,1,2.17-2.17h0a2.17,2.17,0,0,1,2.17,2.17V324A2.17,2.17,0,0,1,258.79,326.15Z" style="fill:#fff;opacity:0.4;isolation:isolate"></path><path d="M261.74,209.08v104.2H201.41a3.22,3.22,0,0,1-3.21-3.22V205.86h60.32A3.22,3.22,0,0,1,261.74,209.08Z" style="opacity:0.2;isolation:isolate"></path></g><g id="freepik--window-2--inject-81"><path d="M314.71,152.3V277.56l-20.86,20.86H211.39a3.22,3.22,0,0,1-3.21-3.22V152.3a3.22,3.22,0,0,1,3.21-3.22h100.1A3.22,3.22,0,0,1,314.71,152.3Z" style="fill:#712E1E"></path><path d="M314.71,157.77V277.56l-20.86,20.86H211.39a3.22,3.22,0,0,1-3.21-3.22V157.77Z" style="fill:#fff;opacity:0.6000000000000001;isolation:isolate"></path><circle cx="310.37" cy="153.06" r="1.55" style="fill:#fff;opacity:0.6000000000000001;isolation:isolate"></circle><circle cx="304.43" cy="153.06" r="1.55" style="fill:#fff;opacity:0.6000000000000001;isolation:isolate"></circle><path d="M300.05,153.06a1.56,1.56,0,1,1-1.55-1.55A1.54,1.54,0,0,1,300.05,153.06Z" style="fill:#fff;opacity:0.6000000000000001;isolation:isolate"></path><path d="M268.62,168H248.25a1,1,0,0,1,0-2h20.37a1,1,0,0,1,0,2Z" style="fill:#712E1E"></path><path d="M277,173.42h-37.1a1,1,0,0,1,0-2H277a1,1,0,0,1,0,2Z" style="fill:#712E1E"></path><path d="M268.92,178.89H248a1,1,0,0,1,0-2h21a1,1,0,0,1,0,2Z" style="fill:#712E1E"></path><path d="M301.05,193.35H228a1,1,0,0,1,0-2h73a1,1,0,0,1,0,2Z" style="fill:#712E1E"></path><path d="M288.84,215.2h-73a1,1,0,0,1,0-2h73a1,1,0,0,1,0,2Z" style="fill:#712E1E"></path><path d="M301.05,198.81H215.82a1,1,0,0,1,0-2h85.23a1,1,0,0,1,0,2Z" style="fill:#712E1E"></path><path d="M301.05,204.28H215.82a1,1,0,0,1,0-2h85.23a1,1,0,0,1,0,2Z" style="fill:#712E1E"></path><path d="M301.05,209.74H215.82a1,1,0,0,1,0-2h85.23a1,1,0,0,1,0,2Z" style="fill:#712E1E"></path><path d="M301.05,248.35H228a1,1,0,0,1,0-2h73a1,1,0,0,1,0,2Z" style="fill:#712E1E"></path><path d="M288.84,270.2h-73a1,1,0,0,1,0-2h73a1,1,0,0,1,0,2Z" style="fill:#712E1E"></path><path d="M301.05,253.81H215.82a1,1,0,0,1,0-2h85.23a1,1,0,0,1,0,2Z" style="fill:#712E1E"></path><path d="M301.05,259.28H215.82a1,1,0,0,1,0-2h85.23a1,1,0,0,1,0,2Z" style="fill:#712E1E"></path><path d="M301.05,264.74H215.82a1,1,0,0,1,0-2h85.23a1,1,0,0,1,0,2Z" style="fill:#712E1E"></path><rect x="290.82" y="165.76" width="10.23" height="13.62" style="fill:#712E1E"></rect><circle cx="221.5" cy="171.43" r="5.67" style="fill:#712E1E"></circle><path d="M215.5,222.35a1.2,1.2,0,0,0,2.39,0,1.2,1.2,0,1,0-2.39,0Z" style="fill:#712E1E"></path><path d="M215.5,227.81a1.2,1.2,0,1,0,1.19-1.19A1.19,1.19,0,0,0,215.5,227.81Z" style="fill:#712E1E"></path><path d="M215.5,233.28a1.2,1.2,0,0,0,2.39,0,1.2,1.2,0,1,0-2.39,0Z" style="fill:#712E1E"></path><path d="M215.5,238.74a1.2,1.2,0,0,0,2.39,0,1.2,1.2,0,1,0-2.39,0Z" style="fill:#712E1E"></path><path d="M233.84,223.35h-13a1,1,0,0,1,0-2h13a1,1,0,0,1,0,2Z" style="fill:#712E1E"></path><path d="M246.05,228.81H220.82a1,1,0,0,1,0-2h25.23a1,1,0,0,1,0,2Z" style="fill:#712E1E"></path><path d="M231.05,234.28H220.82a1,1,0,0,1,0-2h10.23a1,1,0,0,1,0,2Z" style="fill:#712E1E"></path><path d="M242.05,239.74H220.82a1,1,0,0,1,0-2h21.23a1,1,0,0,1,0,2Z" style="fill:#712E1E"></path><polygon points="314.71 277.56 293.85 298.42 293.85 277.56 314.71 277.56" style="fill:#712E1E;opacity:0.5"></polygon><polygon points="301.05 165.76 290.82 179.38 301.05 179.38 301.05 165.76" style="opacity:0.2;isolation:isolate"></polygon><rect x="218.18" y="168.12" width="6.63" height="6.63" style="opacity:0.2;isolation:isolate"></rect><rect x="308.81" y="157.77" width="5.89" height="119.79" style="opacity:0.4;isolation:isolate"></rect><path d="M311.76,180.36h0a2.17,2.17,0,0,1-2.17-2.17V166a2.17,2.17,0,0,1,2.17-2.17h0a2.17,2.17,0,0,1,2.17,2.17v12.24A2.17,2.17,0,0,1,311.76,180.36Z" style="fill:#712E1E"></path><path d="M311.76,180.36h0a2.17,2.17,0,0,1-2.17-2.17V166a2.17,2.17,0,0,1,2.17-2.17h0a2.17,2.17,0,0,1,2.17,2.17v12.24A2.17,2.17,0,0,1,311.76,180.36Z" style="fill:#fff;opacity:0.4;isolation:isolate"></path></g></svg>