<svg xmlns="http://www.w3.org/2000/svg" viewBox="0 0 500 500"><g id="freepik--Window--inject-58"><rect x="97.94" y="71.81" width="331.83" height="291.82" style="fill:#fff"></rect><path d="M429.77,363.63c0-1.85-.08-116.18-.22-291.82l.22.22L98,72.07h0l.26-.26c0,106.06,0,205.92,0,291.82l-.23-.23,331.83.23-331.83.23h-.23v-.23c0-85.9,0-185.76,0-291.82v-.26H98l331.8,0H430v.22C429.86,247.46,429.78,361.78,429.77,363.63Z" style="fill:#263238"></path><path d="M169.23,146.44v52.34h63.62V146.44a4.51,4.51,0,0,0-4.51-4.51H173.75A4.51,4.51,0,0,0,169.23,146.44Z" style="fill:#712E1E"></path><path d="M156.46,236l14.21-39.09,62.18,1.86-9.27,35.65a3.16,3.16,0,0,1-3.12,2.36l-16.1-.34-2.65,3.75a3.51,3.51,0,0,1-3.05,1.5l-38.92-1.64A3.5,3.5,0,0,1,156.46,236Z" style="fill:#712E1E"></path><polygon points="172.64 151.14 172.64 156.5 172.64 192.1 228.56 195.18 228.31 151.14 172.64 151.14" style="fill:#f5f5f5"></polygon><path d="M172.64,151.14h.25l.76,0,3,0L188,151l40.29-.11h.23v.23c.07,12.77.16,27.3.26,42.66,0,.46,0,.93,0,1.38v.27h-.28l-55.91-3.13h-.2v-.2c0-12.42.07-22.66.09-29.81,0-3.55,0-6.34.06-8.27,0-.93,0-1.65,0-2.16s0-.72,0-.72,0,.27,0,.76,0,1.23,0,2.17c0,1.91,0,4.68.06,8.22,0,7.15.06,17.39.09,29.81l-.2-.21,55.92,3-.27.26c0-.45,0-.91,0-1.38-.08-15.35-.15-29.89-.21-42.66l.23.24-40.14-.12-11.42-.06-3,0h-.79Z" style="fill:#263238"></path><path d="M175.57,161.36c.05-1.36,0-7.22,0-7.22,15.63,0,33.14.06,48.77,0,.44,7.74.53,18.18,1,25.92" style="fill:#ebebeb"></path><path d="M225.31,180.07a1.78,1.78,0,0,1-.07-.49c0-.37-.07-.84-.11-1.42-.09-1.24-.18-3.06-.28-5.35-.22-4.58-.34-11.06-.75-18.64l.24.22-15,0c-14,0-26.38,0-33.74-.12l.14-.15c0,2.24-.05,4-.07,5.32q0,.87,0,1.41a3.83,3.83,0,0,1,0,.49,1.72,1.72,0,0,1,0-.49c0-.36,0-.83,0-1.41,0-1.29,0-3.08-.07-5.32V154h.15c7.36-.07,19.72-.11,33.74-.1l15,0h.23v.23c.37,7.6.43,14.08.56,18.66.06,2.25.11,4.06.15,5.35,0,.59,0,1.06,0,1.42A3.8,3.8,0,0,1,225.31,180.07Z" style="fill:#e0e0e0"></path><polygon points="164.1 161.54 175.63 195.18 228.56 195.18 220.65 161.36 164.1 161.54" style="fill:#fff"></polygon><path d="M164.1,161.54h.25l.78,0,3.08,0,11.63-.1,40.81-.26h.19l0,.18,7.6,32.45c.11.46.22.92.32,1.37l.08.32h-.33l-52.93-.05h-.15l0-.14c-3.48-10.3-6.33-18.74-8.33-24.63-1-2.9-1.73-5.17-2.25-6.74-.25-.75-.44-1.34-.58-1.75s-.18-.59-.18-.59l.23.62.63,1.78c.55,1.58,1.35,3.86,2.37,6.76,2,5.84,4.95,14.21,8.5,24.41l-.2-.14,52.93-.05-.26.32c-.1-.45-.21-.91-.32-1.37l-7.57-32.46.24.19H180l-11.7,0-3.13,0h-.82A1.23,1.23,0,0,1,164.1,161.54Z" style="fill:#263238"></path><g style="opacity:0.30000000000000004"><path d="M228.49,195.88a1.45,1.45,0,0,0-1.32-.1,208.73,208.73,0,0,0-58.57,25.51l-7.42,8.6c.94,1.47,2.95,1.73,4.69,1.85l24.94,1.62c5.8.38,11.6.76,17.41.74,3.45,0,7.22-.29,9.73-2.65a13.84,13.84,0,0,0,3.05-5.2,129.73,129.73,0,0,0,7.72-29.11A1.41,1.41,0,0,0,228.49,195.88Z"></path></g><polygon points="175.63 197.84 160.84 229.83 216.38 230.94 228.56 195.18 175.63 197.84" style="fill:#f5f5f5"></polygon><path d="M175.63,197.84a.75.75,0,0,1,.24,0l.73-.06,2.86-.17L190.3,197l38.24-2,.35,0-.11.34c-3.67,10.81-7.8,23-12.16,35.76l-.06.18h-.2L160.83,230h-.31l.13-.29c4.56-9.76,8.3-17.75,10.9-23.33,1.29-2.74,2.31-4.89,3-6.37l.79-1.66c.18-.37.28-.54.28-.54s-.08.21-.24.59-.44,1-.76,1.7l-2.92,6.45L161,229.91l-.18-.29,55.53,1.06h0l-.25.18,12.2-35.76.24.32-38.15,1.81-10.88.48-2.89.11-.76,0Z" style="fill:#263238"></path><polygon points="175.39 195.18 159.34 212.85 214.51 213.27 228.31 195.18 175.39 195.18" style="fill:#fafafa"></polygon><path d="M175.39,195.18a1,1,0,0,1,.24,0l.75,0,2.91,0,11-.07,38.07-.1h.5l-.3.4c-4.29,5.62-8.95,11.74-13.79,18.1l-.08.1h-1.81L159.34,213h-.43l.29-.32L171,199.83l3.22-3.47.84-.89a1.7,1.7,0,0,1,.3-.29l-.27.34-.82.93L171.13,200l-11.65,13-.14-.32,53.49.33,1.68,0-.21.1c4.86-6.35,9.52-12.46,13.81-18.08l.2.4-38-.1-11-.07-2.94,0-.76,0Z" style="fill:#263238"></path><polyline points="173.65 179.78 168.91 165.01 218.09 165.01 224.98 192.01" style="fill:#f5f5f5"></polyline><path d="M225,192a2.36,2.36,0,0,1-.17-.5c-.11-.37-.24-.85-.41-1.46l-1.49-5.54-5.06-19.44.24.18-18.41,0-30.77-.06.18-.26,3.39,10.83c.37,1.25.67,2.23.89,2.95l.22.78a.85.85,0,0,1,.06.27,1,1,0,0,1-.11-.26c-.08-.2-.17-.45-.28-.75l-1-2.93c-.85-2.59-2.06-6.26-3.55-10.77l-.08-.25h.27l30.77-.07,18.41,0h.18l0,.18c2,7.93,3.67,14.67,4.87,19.49.57,2.35,1,4.23,1.35,5.57.15.62.26,1.11.34,1.48A2.92,2.92,0,0,1,225,192Z" style="fill:#263238"></path><path d="M202.84,177a7.63,7.63,0,0,0-2.51-1.55c-1.84-.56-3.83.35-5.31,1.59s-2.68,2.8-4.25,3.92l17.25.28Z" style="fill:#fff"></path><path d="M211.87,171.84c-.62-.93-2.67-2.08-4-1.22h0a2.67,2.67,0,0,0-1.71,2,3.16,3.16,0,0,0,5.51,2.31A2.65,2.65,0,0,0,211.87,171.84Z" style="fill:#fff"></path><polygon points="175.39 195.18 158.84 179.78 213 180.22 228.56 195.18 175.39 195.18" style="fill:#fafafa"></polygon><path d="M175.39,195.18a1.33,1.33,0,0,1,.26,0l.77,0,3,0,11.05-.07,38.13-.1-.18.43-15.56-15,.18.08h-1L158.84,180l.13-.32L171,191l3.27,3.1.85.82a2.7,2.7,0,0,1,.28.3,1.69,1.69,0,0,1-.3-.25c-.22-.19-.51-.44-.87-.77l-3.32-3-12.19-11.23-.35-.32h.48L212,180h1.11l.07.07,15.55,15,.44.43h-.61l-38.21-.1-11-.07-2.93,0-.75,0A1,1,0,0,1,175.39,195.18Z" style="fill:#263238"></path><path d="M208.52,185.7c0,.14-8,.26-17.75.26S173,185.84,173,185.7s7.95-.26,17.75-.26S208.52,185.55,208.52,185.7Z" style="fill:#263238"></path><path d="M212.45,189.36c0,.14-7.95.26-17.75.26S177,189.5,177,189.36s7.94-.26,17.75-.26S212.45,189.22,212.45,189.36Z" style="fill:#263238"></path><path d="M216,192.89c0,.14-7.95.26-17.75.26s-17.76-.12-17.76-.26,7.95-.26,17.76-.26S216,192.74,216,192.89Z" style="fill:#263238"></path><path d="M211.55,207c0,.14-8.2.26-18.32.26s-18.32-.12-18.32-.26,8.2-.26,18.32-.26S211.55,206.89,211.55,207Z" style="fill:#263238"></path><path d="M215.72,202.87c0,.14-8.2.26-18.32.26s-18.32-.12-18.32-.26,8.2-.26,18.32-.26S215.72,202.72,215.72,202.87Z" style="fill:#263238"></path><path d="M430.74,101.74c0,.14-73.68.26-164.54.26s-164.55-.12-164.55-.26,73.66-.26,164.55-.26S430.74,101.6,430.74,101.74Z" style="fill:#263238"></path><path d="M120.53,88.08a3.41,3.41,0,1,1-3.41-3.41A3.41,3.41,0,0,1,120.53,88.08Z" style="fill:#712E1E"></path><path d="M131.71,88.08a3.41,3.41,0,1,1-3.41-3.41A3.41,3.41,0,0,1,131.71,88.08Z" style="fill:#712E1E"></path><path d="M142.89,88.08a3.41,3.41,0,1,1-3.41-3.41A3.41,3.41,0,0,1,142.89,88.08Z" style="fill:#712E1E"></path><path d="M247.22,94.08V88.89l-2.54,4.27h-.9L241.24,89v5.08h-1.88V85.44H241l3.24,5.37,3.18-5.37h1.64l0,8.64Z" style="fill:#263238"></path><path d="M257.61,87.44l-3,7c-.65,1.61-1.56,2.09-2.76,2.09A3,3,0,0,1,250,96l.7-1.37a1.77,1.77,0,0,0,1.09.41c.53,0,.83-.23,1.09-.82l0-.06L250,87.44h2l1.87,4.5,1.87-4.5Z" style="fill:#263238"></path><path d="M267.52,87v2.28h4v1.61h-4v3.15h-2V85.44h6.53V87Z" style="fill:#263238"></path><path d="M272.91,85.44a1.11,1.11,0,0,1,1.2-1.08,1.08,1.08,0,0,1,1.2,1,1.21,1.21,0,0,1-2.4,0Zm.24,2h1.92v6.64h-1.92Z" style="fill:#263238"></path><path d="M276.86,84.92h1.93v9.16h-1.93Z" style="fill:#263238"></path><path d="M287.05,91.3h-5a1.76,1.76,0,0,0,1.9,1.33,2.24,2.24,0,0,0,1.66-.64l1,1.11a3.47,3.47,0,0,1-2.74,1.08c-2.3,0-3.79-1.45-3.79-3.42a3.38,3.38,0,0,1,3.54-3.42,3.29,3.29,0,0,1,3.46,3.44C287.09,90.93,287.06,91.14,287.05,91.3ZM282,90.18h3.27a1.66,1.66,0,0,0-3.27,0Z" style="fill:#263238"></path><path d="M287.73,93.46l.64-1.38a4.58,4.58,0,0,0,2.31.64c.89,0,1.22-.24,1.22-.61,0-1.08-4,0-4-2.63,0-1.25,1.14-2.14,3.07-2.14a5.47,5.47,0,0,1,2.56.58l-.64,1.37a3.85,3.85,0,0,0-1.92-.5c-.86,0-1.23.27-1.23.62,0,1.14,4,0,4,2.65,0,1.24-1.15,2.12-3.13,2.12A5.68,5.68,0,0,1,287.73,93.46Z" style="fill:#263238"></path><path d="M414.34,127.5a5,5,0,0,0,.55-.11,1.91,1.91,0,0,0,1.17-1.09,2.85,2.85,0,0,0,.12-1.2c0-.46,0-1,0-1.5,0-1.08,0-2.33,0-3.73s0-3,0-4.67c0-.43,0-.88,0-1.3a1.83,1.83,0,0,0-.54-1.12,1.77,1.77,0,0,0-1.18-.49h-1.47l-13.55,0-78.47.08a1.66,1.66,0,0,0-1.65,1.52v11.26a2.16,2.16,0,0,0,.22,1.21,1.64,1.64,0,0,0,.89.75,1.68,1.68,0,0,0,.6.09h25.61l35.27.06,23.79.08,6.46,0,1.68,0,.58,0-.58,0-1.68,0-6.46,0-23.79.08-35.27.06-20.84,0H321a2.46,2.46,0,0,1-.76-.12,2.16,2.16,0,0,1-1.18-1,2.63,2.63,0,0,1-.28-1.47V122.4c0-1.87,0-3.75,0-5.64,0-1,0-1.91,0-2.87a2.2,2.2,0,0,1,2.17-2l78.47.08,13.55,0h1.47a2,2,0,0,1,2,1.87c0,.46,0,.88,0,1.32,0,1.7,0,3.26,0,4.67s0,2.65,0,3.73c0,.54,0,1,0,1.5a2.75,2.75,0,0,1-.16,1.24,1.92,1.92,0,0,1-1.24,1.1A1.38,1.38,0,0,1,414.34,127.5Z" style="fill:#e0e0e0"></path><path d="M325,121.79l.26-.54a2.54,2.54,0,0,0,1.61.56c.85,0,1.21-.33,1.21-.75,0-1.2-3-.44-3-2.26,0-.76.58-1.4,1.87-1.4a3,3,0,0,1,1.57.43l-.23.56A2.55,2.55,0,0,0,327,118c-.83,0-1.19.35-1.19.77,0,1.2,3,.45,3,2.24,0,.75-.6,1.4-1.89,1.4A2.91,2.91,0,0,1,325,121.79Z" style="fill:#e0e0e0"></path><path d="M333.06,120.72h-3a1.24,1.24,0,0,0,1.34,1.08,1.4,1.4,0,0,0,1.07-.44l.37.43a2,2,0,0,1-3.46-1.29,1.82,1.82,0,0,1,1.86-1.89,1.79,1.79,0,0,1,1.83,1.91A1.41,1.41,0,0,1,333.06,120.72Zm-3-.48h2.37a1.16,1.16,0,0,0-1.19-1.06A1.14,1.14,0,0,0,330.06,120.24Z" style="fill:#e0e0e0"></path><path d="M336.83,120.11v2.24h-.63v-.49a1.38,1.38,0,0,1-1.22.53c-.84,0-1.37-.45-1.37-1.09s.39-1.08,1.49-1.08h1.06v-.13c0-.57-.33-.9-1-.9a1.82,1.82,0,0,0-1.17.4l-.28-.5a2.43,2.43,0,0,1,1.53-.48A1.38,1.38,0,0,1,336.83,120.11Zm-.67,1.11v-.52h-1c-.66,0-.85.26-.85.57s.3.6.81.6A1.07,1.07,0,0,0,336.16,121.22Z" style="fill:#e0e0e0"></path><path d="M340.07,118.61v.65h-.15a1.11,1.11,0,0,0-1.17,1.25v1.85h-.67v-3.7h.64v.62A1.41,1.41,0,0,1,340.07,118.61Z" style="fill:#e0e0e0"></path><path d="M340.52,120.5a1.85,1.85,0,0,1,2-1.89,1.64,1.64,0,0,1,1.51.79l-.51.33a1.15,1.15,0,0,0-1-.53,1.3,1.3,0,0,0,0,2.6,1.13,1.13,0,0,0,1-.53l.51.32a1.64,1.64,0,0,1-1.51.8A1.85,1.85,0,0,1,340.52,120.5Z" style="fill:#e0e0e0"></path><path d="M348.32,120.22v2.13h-.67v-2.06c0-.72-.37-1.08-1-1.08a1.11,1.11,0,0,0-1.18,1.23v1.91h-.67v-5.19h.67v2a1.6,1.6,0,0,1,1.31-.56A1.44,1.44,0,0,1,348.32,120.22Z" style="fill:#e0e0e0"></path><path d="M349.25,121.91a.47.47,0,1,1,.47.48A.47.47,0,0,1,349.25,121.91Z" style="fill:#e0e0e0"></path><path d="M350.83,121.91a.47.47,0,0,1,.48-.48.48.48,0,0,1,0,1A.47.47,0,0,1,350.83,121.91Z" style="fill:#e0e0e0"></path><path d="M352.42,121.91a.47.47,0,0,1,.48-.48.48.48,0,0,1,0,1A.47.47,0,0,1,352.42,121.91Z" style="fill:#e0e0e0"></path><path d="M149.46,220.39a5.75,5.75,0,0,1-.28-.64c-.17-.42-.43-1-.72-1.86-.6-1.62-1.4-4-2.23-7a70.51,70.51,0,0,1-2.69-24,51.55,51.55,0,0,1,2.72-13,43.61,43.61,0,0,1,4.83-9.75,36.65,36.65,0,0,1,4.64-5.68c.59-.63,1.12-1.05,1.46-1.36a3.28,3.28,0,0,1,.54-.44,3.41,3.41,0,0,1-.47.52c-.31.33-.82.77-1.39,1.42a39.88,39.88,0,0,0-4.47,5.75,44.54,44.54,0,0,0-4.69,9.7A52.5,52.5,0,0,0,144.06,187a73.4,73.4,0,0,0,2.52,23.83c.79,3,1.54,5.36,2.08,7,.25.78.46,1.41.62,1.89A3.62,3.62,0,0,1,149.46,220.39Z" style="fill:#263238"></path><path d="M303.52,152.4v52.33h63.61V152.4a4.51,4.51,0,0,0-4.51-4.51H308A4.5,4.5,0,0,0,303.52,152.4Z" style="fill:#712E1E"></path><g style="opacity:0.30000000000000004"><path d="M303.52,152.4v52.33h63.61V152.4a4.51,4.51,0,0,0-4.51-4.51H308A4.5,4.5,0,0,0,303.52,152.4Z"></path></g><polyline points="306.5 176.31 306.92 157.09 362.59 157.09 362.59 168.06" style="fill:#f5f5f5"></polyline><path d="M362.59,168.06a6.35,6.35,0,0,1,0-.75c0-.53,0-1.25,0-2.16,0-1.93-.05-4.66-.08-8.05l.17.17-32,.09-23.71-.05.22-.21c-.16,5.76-.3,10.55-.4,14-.06,1.64-.11,2.94-.14,3.89,0,.42,0,.75-.06,1a1.22,1.22,0,0,1,0,.35,1.35,1.35,0,0,1,0-.35c0-.27,0-.61,0-1,0-.95,0-2.25,0-3.89.05-3.41.13-8.2.22-14v-.21h.21l23.71,0,32,.09h.18v.18c0,3.39-.06,6.12-.07,8.05,0,.91,0,1.63-.05,2.16A4.41,4.41,0,0,1,362.59,168.06Z" style="fill:#263238"></path><rect x="310.55" y="151.9" width="48.64" height="5.19" style="fill:#f5f5f5"></rect><path d="M310.55,151.9l.23,0h.7l2.76,0,10.28-.08,34.66-.11h.26v5.45l-.27.27h-15.5l-13.73,0-19.39-.1h-.11v-.1q0-2.52.06-3.9c0-.41,0-.73,0-1a1,1,0,0,1,0-.32s0,.13,0,.36,0,.59,0,1c0,.91,0,2.19.07,3.84l-.11-.12,19.39-.1,13.73,0h15.5c-.11.12.27-.25-.25.26V151.9l.26.26-34.47-.11L314.37,152l-2.82,0-.74,0Z" style="fill:#263238"></path><path d="M364.84,217.83c0,.15-12.15.26-27.14.26s-27.15-.11-27.15-.26,12.15-.26,27.15-.26S364.84,217.69,364.84,217.83Z" style="fill:#263238"></path><path d="M298.62,166.86l4.9,37.87h63.61V168.06H338.24l-5.6-4.93H301.9A3.31,3.31,0,0,0,298.62,166.86Z" style="fill:#712E1E"></path><path d="M349.62,182.89c0,.14-7,.26-15.56.26s-15.55-.12-15.55-.26,7-.26,15.55-.26S349.62,182.75,349.62,182.89Z" style="fill:#263238"></path><path d="M349.62,186.62c0,.14-7,.26-15.56.26s-15.55-.12-15.55-.26,7-.26,15.55-.26S349.62,186.47,349.62,186.62Z" style="fill:#263238"></path><path d="M159.34,266.07v52.34H223V266.07a4.51,4.51,0,0,0-4.51-4.51H163.85A4.51,4.51,0,0,0,159.34,266.07Z" style="fill:#712E1E"></path><g style="opacity:0.30000000000000004"><path d="M159.34,266.07v52.34H223V266.07a4.51,4.51,0,0,0-4.51-4.51H163.85A4.51,4.51,0,0,0,159.34,266.07Z"></path></g><polyline points="162.32 289.99 162.75 270.77 218.41 270.77 218.41 281.74" style="fill:#f5f5f5"></polyline><path d="M218.41,281.74a5.49,5.49,0,0,1,0-.75c0-.54,0-1.25-.05-2.16,0-1.93,0-4.66-.08-8.06l.17.18-32,.08-23.7,0,.21-.21c-.16,5.76-.3,10.55-.4,14-.06,1.64-.11,2.94-.14,3.89,0,.41,0,.75,0,1s0,.35-.05.35a1.35,1.35,0,0,1,0-.35c0-.27,0-.61,0-1,0-.94,0-2.25,0-3.89.06-3.4.13-8.19.22-14v-.21h.22l23.7-.05,32,.09h.18v.17c0,3.4-.06,6.13-.08,8.06,0,.91,0,1.62,0,2.16A3.39,3.39,0,0,1,218.41,281.74Z" style="fill:#263238"></path><rect x="166.37" y="265.58" width="48.64" height="5.19" style="fill:#f5f5f5"></rect><path d="M166.37,265.58s.07,0,.23,0l.7,0,2.76,0,10.28-.08,34.67-.11h.26v5.45c-.52.53-.16.15-.28.26h-15.5l-13.72,0-19.4-.11h-.11v-.11c0-1.67.05-3,.06-3.89,0-.41,0-.73,0-1a1.7,1.7,0,0,1,0-.32,2.81,2.81,0,0,1,0,.36c0,.25,0,.58,0,1,0,.91,0,2.19.06,3.83l-.11-.11,19.4-.1,13.72,0H215c-.11.12.28-.25-.24.26v-5.19l.26.26-34.48-.11-10.34-.08-2.82,0-.74,0Z" style="fill:#263238"></path><path d="M220.67,331.51c0,.14-12.16.26-27.15.26s-27.15-.12-27.15-.26,12.15-.26,27.15-.26S220.67,331.37,220.67,331.51Z" style="fill:#263238"></path><path d="M154.44,280.54l4.9,37.87H223V281.74H194.06l-5.6-4.93H157.73A3.31,3.31,0,0,0,154.44,280.54Z" style="fill:#712E1E"></path><path d="M205.45,296.57c0,.14-7,.26-15.56.26s-15.56-.12-15.56-.26,7-.26,15.56-.26S205.45,296.43,205.45,296.57Z" style="fill:#263238"></path><path d="M205.45,300.29c0,.15-7,.27-15.56.27s-15.56-.12-15.56-.27,7-.26,15.56-.26S205.45,300.15,205.45,300.29Z" style="fill:#263238"></path><path d="M311.42,266.11v52.33H375V266.11a4.51,4.51,0,0,0-4.51-4.51h-54.6A4.51,4.51,0,0,0,311.42,266.11Z" style="fill:#712E1E"></path><g style="opacity:0.30000000000000004"><path d="M311.42,266.11v52.33H375V266.11a4.51,4.51,0,0,0-4.51-4.51h-54.6A4.51,4.51,0,0,0,311.42,266.11Z"></path></g><polyline points="314.41 290.02 314.83 270.81 370.5 270.81 370.5 281.77" style="fill:#f5f5f5"></polyline><path d="M370.5,281.77a4.41,4.41,0,0,1-.05-.75c0-.53,0-1.25-.05-2.16,0-1.93,0-4.66-.07-8.05l.17.17-32,.09L314.83,271l.22-.21c-.17,5.76-.3,10.55-.4,13.95-.06,1.64-.11,2.95-.15,3.89,0,.42,0,.75-.05,1a2,2,0,0,1,0,.35,1.6,1.6,0,0,1,0-.35c0-.27,0-.61,0-1,0-.95,0-2.25,0-3.89.05-3.41.12-8.2.21-14v-.21h.21l23.71,0,32,.08h.17v.18c0,3.39-.06,6.12-.08,8.05,0,.91,0,1.63,0,2.16A4.41,4.41,0,0,1,370.5,281.77Z" style="fill:#263238"></path><rect x="318.45" y="265.61" width="48.64" height="5.19" style="fill:#f5f5f5"></rect><path d="M318.45,265.61l.23,0h.71l2.76,0,10.28-.08,34.66-.11h.26v5.45c-.52.53-.15.15-.27.27h-15.5l-13.73,0-19.4-.1h-.11v-.11c0-1.68.05-3,.07-3.9,0-.41,0-.73,0-1s0-.32,0-.32a1.89,1.89,0,0,1,0,.36c0,.26,0,.59,0,1q0,1.36.06,3.84l-.11-.11,19.4-.11,13.73,0h15.5c-.11.11.27-.26-.25.25v-5.19l.26.26-34.47-.11-10.35-.08-2.81,0-.74,0Z" style="fill:#263238"></path><path d="M372.75,331.54c0,.15-12.16.26-27.15.26s-27.15-.11-27.15-.26,12.16-.26,27.15-.26S372.75,331.4,372.75,331.54Z" style="fill:#263238"></path><path d="M306.53,280.57l4.89,37.87H375V281.77H346.15l-5.61-4.93H309.81A3.3,3.3,0,0,0,306.53,280.57Z" style="fill:#712E1E"></path><path d="M357.53,296.6c0,.15-7,.26-15.56.26s-15.56-.11-15.56-.26,7-.26,15.56-.26S357.53,296.46,357.53,296.6Z" style="fill:#263238"></path><path d="M357.53,300.33c0,.14-7,.26-15.56.26s-15.56-.12-15.56-.26,7-.26,15.56-.26S357.53,300.18,357.53,300.33Z" style="fill:#263238"></path><path d="M139.54,182.12a4.48,4.48,0,0,1,0-1.07,27.06,27.06,0,0,1,.19-2.93,38,38,0,0,1,2.36-9.37,37.34,37.34,0,0,1,4.69-8.46,27.6,27.6,0,0,1,1.85-2.27,4.11,4.11,0,0,1,.77-.75c.07.06-.93,1.21-2.33,3.24a42.2,42.2,0,0,0-7,17.66C139.7,180.6,139.64,182.13,139.54,182.12Z" style="fill:#263238"></path><path d="M142.73,178.22c.06.05-.24.52-.76,1.25l-.95,1.28c-.19.24-.37.49-.57.73l-.3.39-.16.2-.08.1,0,.05,0,0h-.41a8.58,8.58,0,0,1-1.82-3.09,2.81,2.81,0,0,1-.25-1.46,15.39,15.39,0,0,0,2.45,4.2h-.38l0,0,0-.05.08-.1.16-.2.31-.38.6-.72,1-1.21C142.28,178.57,142.68,178.18,142.73,178.22Z" style="fill:#263238"></path><path d="M351.51,224.91c0,.14-7.63.26-17,.26s-17-.12-17-.26,7.62-.26,17-.26S351.51,224.77,351.51,224.91Z" style="fill:#e0e0e0"></path><path d="M360.25,337.56c0,.14-7.62.26-17,.26s-17-.12-17-.26,7.62-.26,17-.26S360.25,337.42,360.25,337.56Z" style="fill:#e0e0e0"></path><path d="M201.05,339.37c0,.14-7.62.26-17,.26s-17-.12-17-.26,7.62-.26,17-.26S201.05,339.23,201.05,339.37Z" style="fill:#e0e0e0"></path></g></svg>